<svg id="Слой_1" data-name="Слой 1" xmlns="http://www.w3.org/2000/svg" viewBox="0 0 26 21"><defs><style>.cls-1{fill:#fff;}</style></defs><path class="cls-1" d="M2.24,19h23a1.5,1.5,0,0,1,1.5,1.5h0a1.5,1.5,0,0,1-1.5,1.5h-23a1.5,1.5,0,0,1-1.5-1.5h0A1.5,1.5,0,0,1,2.24,19Z" transform="translate(-0.74 -1)"/><path class="cls-1" d="M2.24,10h23a1.5,1.5,0,0,1,1.5,1.5h0a1.5,1.5,0,0,1-1.5,1.5h-23a1.5,1.5,0,0,1-1.5-1.5h0A1.5,1.5,0,0,1,2.24,10Z" transform="translate(-0.74 -1)"/><path class="cls-1" d="M12.74,1h12a1.5,1.5,0,0,1,1.5,1.5h0A1.5,1.5,0,0,1,24.74,4h-12a1.5,1.5,0,0,1-1.5-1.5h0A1.5,1.5,0,0,1,12.74,1Z" transform="translate(-0.74 -1)"/></svg>